# xmcd
#
# Track frame offsets:
# 150
# 14061
# 29611
# 48100
# 64756
# 83385
# 102573
# 120326
# 133454
# 150586
# 167298
# 189539
# 208974
# 229009
# 250897
#
# Disc length: 3603 seconds
#
#
# Revision: 0
# Processed by: cddbd v1.5PL3 Copyright (c) Steve Scherf et al.
# Submitted via: FreeRIP 2.60 
#
DISCID=c70e110f
DTITLE=Chris Murphy - I'm A Happy Guy
DYEAR=1900
DGENRE=Blues
TTITLE0=Hit It
TTITLE1=No Junk, Just Fonk
TTITLE2=Talk To Me Baby
TTITLE3=Saxman
TTITLE4=Picante Blues
TTITLE5=Do I Want You Back
TTITLE6=I Can Tell
TTITLE7=Rooster Blues
TTITLE8=Soulful Strut
TTITLE9=No Big Thang
TTITLE10=Tuff
TTITLE11=Blues In The Closet
TTITLE12=Walkin' West Broadway
TTITLE13=Jumpin' At The Deli
TTITLE14=Let's Stay Together
EXTD=Bluesfestradio.com
EXTT0=
EXTT1=
EXTT2=
EXTT3=
EXTT4=
EXTT5=
EXTT6=
EXTT7=
EXTT8=
EXTT9=
EXTT10=
EXTT11=
EXTT12=
EXTT13=
EXTT14=
PLAYORDER=
